<svg xmlns="http://www.w3.org/2000/svg" xmlns:xlink="http://www.w3.org/1999/xlink" width="64.798" height="64.798" viewBox="0 0 64.798 64.798">
  <defs>
    <clipPath id="clip-path">
      <circle id="Ellipse_4" data-name="Ellipse 4" cx="32.399" cy="32.399" r="32.399" fill="#fff"/>
    </clipPath>
  </defs>
  <g id="Group_49" data-name="Group 49" transform="translate(-1661 -38.202)">
    <circle id="Ellipse_5" data-name="Ellipse 5" cx="32.399" cy="32.399" r="32.399" transform="translate(1661 38.202)" fill="#c2c2c2"/>
    <g id="Mask_Group_3" data-name="Mask Group 3" transform="translate(1661 38.202)" clip-path="url(#clip-path)">
      <g id="user-male-black-shape" transform="translate(0 7.609)">
        <path id="Path_28" data-name="Path 28" d="M52.864,44.733H48.8A8.134,8.134,0,0,1,40.664,36.6V33.987a20.554,20.554,0,0,0,3.892-7.341c.083-.451.517-.673.806-.983a5.027,5.027,0,0,0,.7-6.054c-.159-.284-.445-.53-.429-.882,0-2.385.012-4.773,0-7.156a11.939,11.939,0,0,0-2.9-8A11.352,11.352,0,0,0,36.551.387,20.487,20.487,0,0,0,27.7.593a10.721,10.721,0,0,0-6.306,4.269A12.324,12.324,0,0,0,19.447,11.3c-.036,2.426-.008,4.859-.016,7.291.055.487-.358.816-.544,1.219a5.04,5.04,0,0,0,1.152,6.165,2.382,2.382,0,0,1,.695,1.36A19.677,19.677,0,0,0,24.4,33.9v2.7a8.133,8.133,0,0,1-8.133,8.133H12.2S4.829,46.766,0,56.932V61a4.064,4.064,0,0,0,4.067,4.066H61A4.064,4.064,0,0,0,65.063,61V56.932C60.234,46.767,52.864,44.733,52.864,44.733Z" transform="translate(0 -0.002)" fill="#fff"/>
      </g>
    </g>
  </g>
</svg>
