<svg width="65" height="37" viewBox="0 0 65 37" fill="none" xmlns="http://www.w3.org/2000/svg">
<path d="M52.012 4.89588C52.6486 5.46418 52.9033 6.03247 52.585 6.2219L44.1179 11.084C43.3539 10.3894 42.5263 9.75796 41.6987 9.12652L50.2295 4.2013C50.5478 4.07502 51.3754 4.32759 52.012 4.89588Z" fill="#CECECE"/>
<path d="M32.4041 17.0196L39.6615 23.8391L26.0378 16.0724L20.9449 18.9771L31.8311 25.1651L35.5235 27.2489L37.1787 26.2386L37.688 26.5543C38.0063 26.6806 38.3246 26.8069 38.5793 26.8069C38.7703 26.8069 39.0249 26.7437 39.2159 26.6175L40.9985 25.4809C41.2531 25.3546 41.3804 25.102 41.3804 24.7863C41.3804 24.5337 41.3168 24.218 41.1258 24.0286L33.2953 16.7039L37.0514 14.4307L36.6058 13.7361L32.5314 16.1987L21.4542 13.673L18.5894 14.999L18.9713 15.7567L21.5178 14.557L32.4041 17.0196ZM40.2982 24.4074L40.5528 24.66V24.7863L38.7703 25.9229C38.5793 26.0492 38.5793 26.0492 38.07 25.8597L38.0063 25.7966L40.2982 24.4074Z" fill="#CECECE"/>
<path d="M3.69241 21.6923C5.2203 20.682 7.44848 22.0712 8.97637 21.124C9.86764 20.6188 10.2496 19.4823 11.0772 18.914C12.5415 17.9037 14.7696 18.7245 16.1702 17.5248C16.6158 17.1459 16.8705 16.6408 17.4434 16.4514C17.8891 16.3251 18.3347 16.4514 18.7803 16.5776C20.1809 17.0197 21.5178 17.5248 22.7911 18.1562C25.1466 19.2297 27.3747 20.6188 29.4756 22.1343C31.0035 23.2077 33.9319 24.8495 33.8683 27.0595C33.8683 28.1961 32.2767 29.3958 31.3218 30.0273C30.6215 30.4061 29.8576 30.5956 29.0936 30.8481C28.2024 31.1639 27.4384 31.6059 26.7381 32.1742C26.2925 32.553 25.8469 32.995 25.3376 33.2476C23.8733 34.0685 22.0908 33.8159 20.6266 34.5105C19.5443 35.0156 18.9713 36.0259 17.9527 36.6574C17.8254 36.4048 17.8891 36.1522 17.8891 35.8996C17.8891 35.6471 17.8254 35.3314 17.5708 35.2051C17.3798 35.1419 17.1251 35.2051 16.9341 35.2051C16.1702 35.2051 15.7246 34.2579 14.9606 34.0053C14.5786 33.879 14.133 34.0053 13.8784 34.2579C13.4327 33.9422 13.56 33.2476 13.3054 32.8056C13.1144 32.4267 12.7324 32.1742 12.3505 32.111C11.9685 31.9847 11.5229 32.0479 11.1409 32.0479C11.1409 31.7953 11.1409 31.5427 11.0772 31.227C10.1223 31.0376 9.16736 31.0376 8.21242 31.227C8.0851 30.8481 8.14876 30.4061 8.33975 30.0904C8.14876 29.7116 7.5758 29.7116 7.13017 29.6484C6.74819 29.5853 6.49355 29.5221 6.17523 29.3958C5.98425 29.3327 5.47495 29.2695 5.34763 29.2064C5.09298 28.8907 5.2203 27.5015 5.09298 26.9964C5.09298 26.9964 3.11945 27.1227 2.99212 27.1227C2.8648 27.1227 2.73747 27.0595 2.67381 26.9332C2.67381 26.8701 2.67381 26.8069 2.73747 26.7438C3.05579 26.3018 3.31043 25.7966 3.62875 25.3546C3.69241 25.2915 3.69241 25.2283 3.69241 25.1652C3.69241 25.1021 3.62875 25.0389 3.56508 25.0389C3.3741 24.9758 3.18311 25.0389 2.99212 25.0389C2.80114 25.0389 2.54649 24.9758 2.48283 24.8495C2.48283 24.7863 2.48283 24.7232 2.41916 24.6601C2.3555 24.5969 2.29184 24.5969 2.16451 24.5969C1.40057 24.7232 0.700284 24.9126 0 25.2283C0.57296 24.9758 1.27324 23.9655 1.78254 23.4603C2.41916 22.9552 2.99212 22.1343 3.69241 21.6923Z" fill="#F1CF00"/>
<path d="M16.8702 14.6833C17.6978 13.231 19.0347 12.4733 19.8623 12.9153L37.4968 23.2077C36.6692 24.4706 35.8416 25.7966 35.014 27.1226C34.632 27.7541 33.8044 28.0067 33.1041 27.6278L16.8702 18.1562C16.0426 17.7142 16.0426 16.1356 16.8702 14.6833Z" fill="#A6AEA8"/>
<path d="M50.8664 4.95905C50.3571 4.07504 49.4659 3.56989 48.9566 3.82246L34.8872 12.0312C35.5875 13.1046 36.2878 14.178 36.8607 15.3146L50.8028 7.16908C51.4394 6.85337 51.4394 5.84307 50.8664 4.95905Z" fill="url(#paint0_linear)"/>
<path d="M36.9242 15.3146C37.4335 14.9989 37.4335 14.0518 36.9242 13.1046C36.4149 12.1574 35.5236 11.7154 35.0143 11.968C34.505 12.2837 34.505 13.2309 35.0143 14.1781C35.5873 15.0621 36.4149 15.5672 36.9242 15.3146Z" fill="#1497BF"/>
<path d="M31.7675 16.4513L31.9585 15.6304L20.754 13.0415L17.8892 14.3675L18.2711 15.1252L20.8176 13.9255L31.7675 16.4513Z" fill="#808080"/>
<path d="M16.6158 13.6729C17.4434 12.2206 18.7803 11.4629 19.6079 11.9049L37.2424 22.1973C36.1601 23.8391 35.0779 25.6071 34.1229 27.312L16.6158 17.0827C15.7882 16.6407 15.7882 15.0621 16.6158 13.6729Z" fill="url(#paint1_linear)"/>
<path d="M34.1232 27.312C33.2956 26.87 33.2956 25.2914 34.1869 23.8391C35.0145 22.3868 36.3514 21.629 37.179 22.071C38.0066 22.5131 38.0066 24.0916 37.1154 25.544C36.2877 26.9963 34.9508 27.8171 34.1232 27.312Z" fill="#E18B00"/>
<path d="M34.9508 24.3442C35.4601 23.5233 36.224 23.0813 36.6696 23.3338L36.988 23.5233C36.3513 24.4704 35.7147 25.4807 35.1417 26.491L34.8871 26.3648C34.4415 26.049 34.5051 25.165 34.9508 24.3442Z" fill="url(#paint2_linear)"/>
<path d="M35.1418 26.4279C34.6962 26.1753 34.6962 25.2281 35.1418 24.4073C35.6511 23.5864 36.4151 23.1444 36.8607 23.397C37.3064 23.6495 37.3064 24.5967 36.8607 25.4176C36.4151 26.3016 35.6511 26.7436 35.1418 26.4279Z" fill="#0E6DA1"/>
<path d="M36.6696 25.2914C36.2876 25.9229 35.7783 26.2386 35.46 26.1123L35.269 25.986C35.7147 25.2914 36.1603 24.5337 36.606 23.8391L36.7333 23.9023C37.1152 24.0285 37.0516 24.66 36.6696 25.2914Z" fill="url(#paint3_linear)"/>
<path d="M36.6696 23.7759C36.9879 23.9654 36.9243 24.5336 36.5423 25.1651C36.1603 25.7965 35.651 26.1122 35.3327 25.9859C35.0144 25.7965 35.0781 25.2282 35.46 24.5968C35.7783 24.0285 36.3513 23.6496 36.6696 23.7759Z" fill="#004D77"/>
<path d="M37.8791 26.2385C38.07 26.2385 38.3247 26.1754 38.5157 26.0491L40.2982 24.9125C40.5529 24.7862 40.6802 24.5336 40.6802 24.2179C40.6802 23.9654 40.6165 23.6496 40.4255 23.4602L32.5314 16.1355L36.2875 13.8623L35.8419 13.1046L31.1309 15.9461L39.7889 24.0916L39.9799 24.5336L39.7253 24.1548L37.9427 25.2914C37.7517 25.4177 37.7517 25.4177 37.2424 25.2282L36.0965 24.5336L35.7145 25.2282L36.9241 25.986C37.2424 26.1122 37.5607 26.2385 37.8791 26.2385Z" fill="#808080"/>
<path d="M36.2872 13.8623C36.4145 13.7991 36.4145 13.6097 36.2872 13.3571C36.1599 13.1677 35.9689 13.0414 35.8416 13.1046C35.7143 13.1677 35.7143 13.3571 35.8416 13.6097C35.9689 13.7991 36.1599 13.9254 36.2872 13.8623Z" fill="#808080"/>
<path d="M35.7141 25.2282C35.5868 25.1651 35.5868 24.9757 35.7141 24.7231C35.8415 24.4705 36.0325 24.4074 36.1598 24.4705C36.2871 24.5337 36.2871 24.7231 36.1598 24.9757C36.0325 25.1651 35.8415 25.2914 35.7141 25.2282Z" fill="#808080"/>
<path d="M51.6309 36.4338C58.9521 36.4338 64.8726 33.0872 64.8726 28.9828V27.72C56.0873 28.2251 47.2382 28.4146 38.3892 28.2883V28.9828C38.3255 33.0872 44.3098 36.4338 51.6309 36.4338Z" fill="url(#paint4_linear)"/>
<path d="M38.3896 28.2884C38.3896 32.3927 44.3102 35.7393 51.695 35.7393C59.0162 35.7393 65.0004 32.3927 65.0004 28.2884C65.0004 24.184 59.0799 20.8374 51.695 20.8374C44.3102 20.8374 38.3896 24.1209 38.3896 28.2884Z" fill="#F1F1F1"/>
<path d="M51.6312 35.0447C58.634 35.0447 64.2363 31.8875 64.2363 27.9726V7.07202C55.8329 7.57717 47.4295 7.70346 38.9624 7.64032V28.0358C39.0261 31.8875 44.692 35.0447 51.6312 35.0447Z" fill="url(#paint5_linear)"/>
<path d="M39.0259 7.95608V10.987C40.7448 13.9547 45.7104 16.1016 51.631 16.1016C57.6152 16.1016 62.6446 13.8916 64.2998 10.8607V7.45093C55.8964 7.89293 47.493 8.08237 39.0259 7.95608Z" fill="url(#paint6_linear)"/>
<path d="M64.2361 11.2395C64.2361 15.1544 58.5702 18.3116 51.631 18.3116C44.7555 18.3116 39.0895 15.2176 39.0259 11.3658V26.0152C39.0259 29.9301 44.6918 33.0873 51.631 33.0873C58.6338 33.0873 64.2361 29.9301 64.2361 26.0152V11.2395Z" fill="url(#paint7_linear)"/>
<path d="M39.0259 7.57729C39.0259 11.4922 44.6918 14.6494 51.6947 14.6494C58.6975 14.6494 64.3634 11.4922 64.3634 7.57729C64.3634 3.66238 58.6975 0.505186 51.6947 0.505186C44.6918 0.442042 39.0259 3.66238 39.0259 7.57729Z" fill="#6D6D6D"/>
<path d="M51.6309 15.5965C58.9521 15.5965 64.8726 12.2499 64.8726 8.14557V6.88269C56.0873 7.38784 47.2382 7.57727 38.3892 7.45098V8.14557C38.3255 12.3131 44.3098 15.5965 51.6309 15.5965Z" fill="url(#paint8_linear)"/>
<path d="M38.3896 7.45097C38.3896 11.5553 44.3102 14.9019 51.6951 14.9019C59.0799 14.9019 65.0005 11.5553 65.0005 7.45097C65.0005 3.34662 59.0799 0 51.6951 0C44.3102 0 38.3896 3.34662 38.3896 7.45097Z" fill="#F1F1F1"/>
<path d="M51.6947 0.505127C44.8828 0.505127 39.3442 3.40974 39.3442 7.00894V8.14553C47.5567 7.70352 55.8327 7.51409 64.1088 7.64038V7.00894C64.0452 3.40974 58.5066 0.505127 51.6947 0.505127Z" fill="url(#paint9_linear)"/>
<path d="M64.0451 7.64029C64.0451 4.04109 58.5064 1.13647 51.6309 1.13647C44.7554 1.13647 39.2168 4.04109 39.2168 7.64029C39.2168 11.2395 44.7554 14.1441 51.6309 14.1441C58.5064 14.2072 64.0451 11.2395 64.0451 7.64029Z" fill="#E9E9E9"/>
<path d="M51.6309 12.8181C56.9148 12.8181 61.1802 10.3555 61.1802 7.3246V6.37744C54.814 6.7563 48.4478 6.88259 42.0815 6.81945V7.3246C42.0815 10.3555 46.3469 12.8181 51.6309 12.8181Z" fill="url(#paint10_linear)"/>
<path d="M42.0815 6.75633C42.0815 9.78723 46.3469 12.2498 51.6309 12.2498C56.9148 12.2498 61.1802 9.78723 61.1802 6.75633C61.1802 3.72543 56.9148 1.26282 51.6309 1.26282C46.4106 1.26282 42.0815 3.72543 42.0815 6.75633Z" fill="#F1F1F1"/>
<path d="M60.6071 6.37751V6.81952C60.6071 9.47155 56.5964 11.5553 51.6944 11.5553C46.7288 11.5553 42.7817 9.40841 42.7817 6.81952C42.7817 6.63008 42.7817 6.44065 42.8454 6.25122C42.8454 6.18808 42.8454 6.18808 42.8454 6.12493C43.1 3.59918 46.9834 1.64172 51.7581 1.64172C56.5964 1.64172 60.5435 3.66232 60.6708 6.25122C60.6071 6.31436 60.6071 6.37751 60.6071 6.37751Z" fill="url(#paint11_linear)"/>
<path d="M60.6072 6.37751V6.81952C60.6072 9.47156 56.5964 11.5553 51.6944 11.5553C46.7288 11.5553 42.7817 9.40842 42.7817 6.81952C42.7817 6.63009 42.7817 6.44066 42.8454 6.25123C42.8454 6.18808 42.8454 6.18808 42.8454 6.12494C45.0736 4.92521 48.193 4.16748 51.6308 4.16748C55.1322 4.16748 58.379 4.92521 60.6072 6.18808C60.6072 6.31437 60.6072 6.37751 60.6072 6.37751Z" fill="#F1CF00"/>
<path d="M60.4795 7.70353C60.4795 7.64039 60.5432 7.57724 60.5432 7.5141C60.5432 7.45095 60.6069 7.38781 60.6069 7.26152C60.6069 7.13523 60.6069 7.07209 60.6069 6.9458C60.6069 6.88266 60.6069 6.88266 60.6069 6.88266V6.44065C60.6069 6.44065 60.6069 6.44065 60.6069 6.37751C60.6069 6.31437 60.6069 6.31436 60.6069 6.25122C60.6069 6.25122 60.6069 6.25122 60.6069 6.18808C60.6069 6.06179 60.6069 5.9355 60.5432 5.80921C60.5432 5.74607 60.4795 5.61978 60.4795 5.55664C60.4795 5.4935 60.4795 5.43035 60.4159 5.43035C60.3522 5.30406 60.3522 5.24092 60.2885 5.11463C59.2699 3.09403 55.8322 1.64172 51.6941 1.64172C46.9195 1.64172 43.0361 3.66233 42.7814 6.12493C42.7814 6.18808 42.7814 6.18808 42.7814 6.25122C42.7178 6.44065 42.7178 6.63008 42.7178 6.81952C42.7178 7.38781 42.9088 7.89296 43.2271 8.39811C44.373 6.5038 47.7471 5.11463 51.6941 5.11463C53.6677 5.11463 55.4502 5.43035 56.9781 5.99865C56.9781 8.65069 52.9674 10.7344 48.0654 10.7344C47.5561 10.7344 47.1105 10.7344 46.6648 10.6713C48.1291 11.1764 49.8479 11.4922 51.7578 11.4922C55.8959 11.4922 59.3973 9.97671 60.4159 7.9561C60.4159 7.9561 60.4159 7.89296 60.4795 7.89296C60.4159 7.89296 60.4159 7.82982 60.4795 7.70353Z" fill="#D4BA92"/>
<path d="M42.8451 7.32475C42.9724 4.73586 46.9195 2.71526 51.7578 2.71526C56.4688 2.71526 60.3522 4.67271 60.6069 7.13532C60.6069 7.07218 60.6069 6.94589 60.6069 6.88275V6.44074C60.6069 3.85185 56.5961 1.70496 51.6941 1.70496C46.8558 1.70496 42.9088 3.7887 42.7814 6.31445C42.7178 6.50388 42.7178 6.69332 42.7178 6.88275C42.7178 7.07218 42.7178 7.26161 42.7814 7.3879L42.8451 7.32475Z" fill="url(#paint12_linear)"/>
<defs>
<linearGradient id="paint0_linear" x1="44.4053" y1="11.0194" x2="42.3639" y2="7.45462" gradientUnits="userSpaceOnUse">
<stop offset="0.0155436" stop-color="#00577B"/>
<stop offset="0.0207248" stop-color="#00688A"/>
<stop offset="0.377" stop-color="#00688A"/>
<stop offset="0.3789" stop-color="#0076A1"/>
<stop offset="0.6588" stop-color="#0076A1"/>
<stop offset="0.661" stop-color="#30A3C9"/>
<stop offset="0.8989" stop-color="#30A3C9"/>
<stop offset="0.9041" stop-color="#007FA9"/>
</linearGradient>
<linearGradient id="paint1_linear" x1="24.6476" y1="21.8878" x2="27.8233" y2="16.3423" gradientUnits="userSpaceOnUse">
<stop offset="0.1613" stop-color="#E4A300"/>
<stop offset="0.1633" stop-color="#FBC800"/>
<stop offset="0.5593" stop-color="#FBC800"/>
<stop offset="0.5622" stop-color="#FFD600"/>
<stop offset="0.8728" stop-color="#FFD600"/>
<stop offset="0.8739" stop-color="#F9C600"/>
</linearGradient>
<linearGradient id="paint2_linear" x1="36.4112" y1="23.1399" x2="34.6739" y2="26.1737" gradientUnits="userSpaceOnUse">
<stop offset="0.0958822" stop-color="#007EC7"/>
<stop offset="0.1011" stop-color="#3DB8FF"/>
<stop offset="0.339" stop-color="#3DB8FF"/>
<stop offset="0.3412" stop-color="#0076BF"/>
<stop offset="0.6211" stop-color="#0076BF"/>
<stop offset="0.623" stop-color="#006AA8"/>
<stop offset="0.9793" stop-color="#006AA8"/>
<stop offset="0.9845" stop-color="#005C99"/>
</linearGradient>
<linearGradient id="paint3_linear" x1="36.9828" y1="23.9812" x2="35.7641" y2="26.3212" gradientUnits="userSpaceOnUse">
<stop offset="0.0958822" stop-color="#007EC7"/>
<stop offset="0.1011" stop-color="#3DB8FF"/>
<stop offset="0.339" stop-color="#3DB8FF"/>
<stop offset="0.3412" stop-color="#0076BF"/>
<stop offset="0.6211" stop-color="#0076BF"/>
<stop offset="0.623" stop-color="#006AA8"/>
<stop offset="0.9793" stop-color="#006AA8"/>
<stop offset="0.9845" stop-color="#005C99"/>
</linearGradient>
<linearGradient id="paint4_linear" x1="38.3509" y1="32.0795" x2="64.8619" y2="32.0795" gradientUnits="userSpaceOnUse">
<stop offset="0.1613" stop-color="#B8B8B8"/>
<stop offset="0.1633" stop-color="#DBDBDB"/>
<stop offset="0.5593" stop-color="#DBDBDB"/>
<stop offset="0.5622" stop-color="#E8E8E8"/>
<stop offset="0.8728" stop-color="#E8E8E8"/>
<stop offset="0.8739" stop-color="#D9D9D9"/>
</linearGradient>
<linearGradient id="paint5_linear" x1="39.0114" y1="21.0468" x2="65.1319" y2="21.0468" gradientUnits="userSpaceOnUse">
<stop offset="0.1613" stop-color="#8C8C8C"/>
<stop offset="0.1633" stop-color="#AFAFAF"/>
<stop offset="0.5593" stop-color="#AFAFAF"/>
<stop offset="0.5622" stop-color="#BCBCBC"/>
<stop offset="0.8728" stop-color="#BCBCBC"/>
<stop offset="0.8739" stop-color="#ADADAD"/>
</linearGradient>
<linearGradient id="paint6_linear" x1="39.6756" y1="11.7695" x2="64.9072" y2="11.7695" gradientUnits="userSpaceOnUse">
<stop offset="0.1613" stop-color="#666666"/>
<stop offset="0.1633" stop-color="#898989"/>
<stop offset="0.5593" stop-color="#898989"/>
<stop offset="0.5622" stop-color="#969696"/>
<stop offset="0.8728" stop-color="#969696"/>
<stop offset="0.8739" stop-color="#878787"/>
</linearGradient>
<linearGradient id="paint7_linear" x1="39.0113" y1="22.1486" x2="65.1201" y2="22.1486" gradientUnits="userSpaceOnUse">
<stop offset="0.1633" stop-color="#E9E9E9"/>
<stop offset="0.8739" stop-color="#FFFEFC"/>
</linearGradient>
<linearGradient id="paint8_linear" x1="38.3509" y1="11.2639" x2="64.8619" y2="11.2639" gradientUnits="userSpaceOnUse">
<stop offset="0.1613" stop-color="#B8B8B8"/>
<stop offset="0.1633" stop-color="#DBDBDB"/>
<stop offset="0.5593" stop-color="#DBDBDB"/>
<stop offset="0.5622" stop-color="#E8E8E8"/>
<stop offset="0.8728" stop-color="#E8E8E8"/>
<stop offset="0.8739" stop-color="#D9D9D9"/>
</linearGradient>
<linearGradient id="paint9_linear" x1="39.3155" y1="4.33145" x2="64.0615" y2="4.33145" gradientUnits="userSpaceOnUse">
<stop offset="0.1261" stop-color="#D9D9D9"/>
<stop offset="0.1272" stop-color="#E8E8E8"/>
<stop offset="0.4378" stop-color="#E8E8E8"/>
<stop offset="0.4407" stop-color="#DBDBDB"/>
<stop offset="0.8367" stop-color="#DBDBDB"/>
<stop offset="0.8387" stop-color="#B8B8B8"/>
</linearGradient>
<linearGradient id="paint10_linear" x1="42.1039" y1="9.60024" x2="61.206" y2="9.60024" gradientUnits="userSpaceOnUse">
<stop offset="0.1613" stop-color="#B8B8B8"/>
<stop offset="0.1633" stop-color="#DBDBDB"/>
<stop offset="0.5593" stop-color="#DBDBDB"/>
<stop offset="0.5622" stop-color="#E8E8E8"/>
<stop offset="0.8728" stop-color="#E8E8E8"/>
<stop offset="0.8739" stop-color="#D9D9D9"/>
</linearGradient>
<linearGradient id="paint11_linear" x1="42.7467" y1="6.64499" x2="60.6233" y2="6.64499" gradientUnits="userSpaceOnUse">
<stop offset="0.1613" stop-color="#383838"/>
<stop offset="0.1633" stop-color="#4F4F4F"/>
<stop offset="0.5593" stop-color="#4F4F4F"/>
<stop offset="0.5622" stop-color="#919191"/>
<stop offset="0.8728" stop-color="#919191"/>
<stop offset="0.8739" stop-color="#828282"/>
</linearGradient>
<linearGradient id="paint12_linear" x1="42.746" y1="4.53594" x2="60.6243" y2="4.53594" gradientUnits="userSpaceOnUse">
<stop offset="0.1261" stop-color="#D9D9D9"/>
<stop offset="0.1272" stop-color="#E8E8E8"/>
<stop offset="0.4378" stop-color="#E8E8E8"/>
<stop offset="0.4407" stop-color="#DBDBDB"/>
<stop offset="0.8367" stop-color="#DBDBDB"/>
<stop offset="0.8387" stop-color="#B8B8B8"/>
</linearGradient>
</defs>
</svg>
