<svg width="38" height="59" viewBox="0 0 38 59" fill="none" xmlns="http://www.w3.org/2000/svg">
<path d="M2.55536 59H2.00781L8.79744 34.6953L11.0971 35.6301L2.55536 59Z" fill="#664848"/>
<path d="M37.1241 59L37.6351 58.9641L29.5679 34.2639L27.4507 35.3425L37.1241 59Z" fill="#664848"/>
<path d="M18.9453 59H19.4928L20.5514 35.6301L18.1787 35.8458L18.9453 59Z" fill="#664848"/>
<path d="M-0.000176936 30.8836C0.693387 35.8811 22.4129 41.7416 32.7068 32.6453C40.2995 25.9579 40.044 -0.719702 29.531 -0.000628618C19.5291 0.682491 17.2294 17.1852 13.5426 23.8726C9.78272 30.6679 -0.401714 27.9354 -0.000176936 30.8836Z" fill="#8DAF41"/>
<mask id="mask0" mask-type="alpha" maskUnits="userSpaceOnUse" x="-1" y="-1" width="39" height="39">
<path d="M-0.000176936 30.8836C0.693387 35.8811 22.4129 41.7416 32.7068 32.6453C40.2995 25.9579 40.044 -0.719702 29.531 -0.000628618C19.5291 0.682491 17.2294 17.1852 13.5426 23.8726C9.78272 30.6679 -0.401714 27.9354 -0.000176936 30.8836Z" fill="url(#paint0_linear)"/>
</mask>
<g mask="url(#mask0)">
<path opacity="0.4" d="M-0.000176937 30.8836C0.693387 35.8811 22.4129 41.7416 32.7068 32.6453C40.2995 25.9579 40.044 -0.719702 29.531 -0.000628618C19.5291 0.682491 17.2294 17.1852 13.5426 23.8726C9.78272 30.6679 -0.401714 27.9354 -0.000176937 30.8836Z" fill="url(#paint1_linear)"/>
<path d="M36.4301 21.9675C36.4301 24.4124 36.0651 26.7494 35.3715 28.9066C40.044 19.1991 38.6203 -0.647341 29.531 -0.000174609C27.5598 0.14364 25.9172 0.898667 24.457 2.04919C31.5387 5.50074 36.4301 13.1229 36.4301 21.9675Z" fill="#A0BF4C"/>
<path d="M3.03005 30.7045C3.6141 33.3291 23.837 34.3358 30.2981 30.5247C37.5987 26.1743 36.2116 3.99091 27.3778 4.56616C18.982 5.14142 17.8139 19.0915 14.6746 24.7002C11.5353 30.4169 2.73802 29.4102 3.03005 30.7045Z" fill="#20A052"/>
<path d="M0.21875 31.4596C2.44546 36.2773 22.8508 41.3468 32.7432 32.6101C33.1813 32.2146 33.5463 31.7831 33.9114 31.2798C23.7634 36.529 7.81145 34.6954 0.21875 31.4596Z" fill="#1A954A"/>
</g>
<defs>
<linearGradient id="paint0_linear" x1="30.8935" y1="40.4315" x2="8.81128" y2="0.678964" gradientUnits="userSpaceOnUse">
<stop/>
<stop offset="1" stop-color="#999999"/>
</linearGradient>
<linearGradient id="paint1_linear" x1="30.8935" y1="40.4315" x2="8.81128" y2="0.678964" gradientUnits="userSpaceOnUse">
<stop stop-color="#20A052"/>
<stop offset="1" stop-color="#FFECC0"/>
</linearGradient>
</defs>
</svg>
