<svg width="58" height="43" viewBox="0 0 58 43" fill="none" xmlns="http://www.w3.org/2000/svg">
<path d="M7.36807 37.3274C10.1351 37.3274 12.3782 35.0903 12.3782 32.3308C12.3782 29.5713 10.1351 27.3342 7.36807 27.3342C4.60104 27.3342 2.35791 29.5713 2.35791 32.3308C2.35791 35.0903 4.60104 37.3274 7.36807 37.3274Z" fill="#20A052"/>
<path d="M5.01016 42.2946C7.7772 42.2946 10.0203 40.0575 10.0203 37.298C10.0203 34.5384 7.7772 32.3014 5.01016 32.3014C2.24313 32.3014 0 34.5384 0 37.298C0 40.0575 2.24313 42.2946 5.01016 42.2946Z" fill="#20A052"/>
<path d="M9.51944 42.7649C12.2865 42.7649 14.5296 40.5278 14.5296 37.7683C14.5296 35.0088 12.2865 32.7717 9.51944 32.7717C6.7524 32.7717 4.50928 35.0088 4.50928 37.7683C4.50928 40.5278 6.7524 42.7649 9.51944 42.7649Z" fill="#20A052"/>
<path d="M50.8388 37.3274C53.6058 37.3274 55.8489 35.0903 55.8489 32.3308C55.8489 29.5713 53.6058 27.3342 50.8388 27.3342C48.0717 27.3342 45.8286 29.5713 45.8286 32.3308C45.8286 35.0903 48.0717 37.3274 50.8388 37.3274Z" fill="#20A052"/>
<path d="M48.4809 42.2946C51.2479 42.2946 53.491 40.0575 53.491 37.298C53.491 34.5384 51.2479 32.3014 48.4809 32.3014C45.7138 32.3014 43.4707 34.5384 43.4707 37.298C43.4707 40.0575 45.7138 42.2946 48.4809 42.2946Z" fill="#20A052"/>
<path d="M52.9901 42.7649C55.7572 42.7649 58.0003 40.5278 58.0003 37.7683C58.0003 35.0088 55.7572 32.7717 52.9901 32.7717C50.2231 32.7717 47.98 35.0088 47.98 37.7683C47.98 40.5278 50.2231 42.7649 52.9901 42.7649Z" fill="#20A052"/>
<path d="M54.1981 41.7362H3.89014V42.9707H54.1981V41.7362Z" fill="#726658"/>
<path d="M47.862 27.7751H46.6242C46.3884 27.7751 46.1821 27.5693 46.1821 27.3342C46.1821 27.0991 46.3884 26.8933 46.6242 26.8933H47.862C48.0978 26.8933 48.3041 27.0991 48.3041 27.3342C48.3041 27.5987 48.0978 27.7751 47.862 27.7751Z" fill="#95A5B7"/>
<path d="M49.1883 18.458L28.9119 2.79224L8.51758 18.458V41.8244H49.1883V18.458Z" fill="#778CA3"/>
<path d="M46.9487 21.3678H33.6865V22.6022H46.9487V21.3678Z" fill="#4B6584"/>
<path d="M27.2317 31.2726H26.937V36.5631H27.2317V31.2726Z" fill="#374A5E"/>
<path d="M28.0569 31.2726H27.7622V36.5631H28.0569V31.2726Z" fill="#374A5E"/>
<path d="M28.8821 31.2726H28.5874V36.5631H28.8821V31.2726Z" fill="#374A5E"/>
<path d="M29.7073 31.2726H29.4126V36.5631H29.7073V31.2726Z" fill="#374A5E"/>
<path d="M30.5325 31.2726H30.2378V36.5631H30.5325V31.2726Z" fill="#374A5E"/>
<path d="M31.3284 31.2726H31.0337V36.5631H31.3284V31.2726Z" fill="#374A5E"/>
<path d="M32.1536 31.2726H31.8589V36.5631H32.1536V31.2726Z" fill="#374A5E"/>
<path d="M32.9788 31.2726H32.6841V36.5631H32.9788V31.2726Z" fill="#374A5E"/>
<path d="M33.804 31.2726H33.5093V36.5631H33.804V31.2726Z" fill="#374A5E"/>
<path d="M34.6292 31.2726H34.3345V36.5631H34.6292V31.2726Z" fill="#374A5E"/>
<path d="M34.8355 31.0963H26.7603V31.3902H34.8355V31.0963Z" fill="#374A5E"/>
<path d="M34.5111 35.0642H27.1138V35.3581H34.5111V35.0642Z" fill="#374A5E"/>
<path d="M53.108 21.5441L28.8529 3.99727L4.83362 21.4559L2.91797 18.8401L28.8529 0L54.9942 18.8988L53.108 21.5441Z" fill="#D1D8E0"/>
<path d="M42.8523 24.6302H37.7832V36.8866H42.8523V24.6302Z" fill="#A97C50"/>
<path d="M42.8521 37.1805H37.783C37.6062 37.1805 37.4883 37.0629 37.4883 36.8865V24.6302C37.4883 24.4539 37.6062 24.3363 37.783 24.3363H42.8521C43.0289 24.3363 43.1468 24.4539 43.1468 24.6302V36.8865C43.1468 37.0335 43.0289 37.1805 42.8521 37.1805ZM38.0777 36.5926H42.5574V24.9241H38.0777V36.5926Z" fill="white"/>
<path d="M49.1885 36.5927H26.9375V41.8244H49.1885V36.5927Z" fill="#D1D8E0"/>
<path d="M41.8794 26.0116H38.7554V30.9788H41.8794V26.0116Z" fill="#8E6643"/>
<path d="M36.0443 22.5728H35.1602V36.5632H36.0443V22.5728Z" fill="white"/>
<path d="M36.4567 29.6267H34.7769V36.5631H36.4567V29.6267Z" fill="white"/>
<path d="M36.5745 29.5386H34.6294V29.9207H36.5745V29.5386Z" fill="white"/>
<path d="M45.4745 22.5728H44.5903V36.5632H45.4745V22.5728Z" fill="white"/>
<path d="M45.8874 29.6267H44.2075V36.5631H45.8874V29.6267Z" fill="white"/>
<path d="M46.0052 29.5386H44.0601V29.9207H46.0052V29.5386Z" fill="white"/>
<path d="M46.4179 22.5435H34.1577V23.2489H46.4179V22.5435Z" fill="white"/>
<path d="M46.4473 23.2781L40.2583 18.8106L34.1282 23.2781L33.0967 21.8379L40.2583 16.6356L47.4788 21.8673L46.4473 23.2781Z" fill="#E6EAEE"/>
<path d="M45.0621 38.7382H35.248V40.002H45.0621V38.7382Z" fill="#A5B1C2"/>
<path d="M45.6516 40.5605H34.6587V41.8244H45.6516V40.5605Z" fill="#A5B1C2"/>
<path d="M44.178 37.0334H36.1323V38.2973H44.178V37.0334Z" fill="#A5B1C2"/>
<path d="M46.5066 31.2726H46.2119V36.5631H46.5066V31.2726Z" fill="#374A5E"/>
<path d="M47.3318 31.2726H47.0371V36.5631H47.3318V31.2726Z" fill="#374A5E"/>
<path d="M48.157 31.2726H47.8623V36.5631H48.157V31.2726Z" fill="#374A5E"/>
<path d="M48.9822 31.2726H48.6875V36.5631H48.9822V31.2726Z" fill="#374A5E"/>
<path d="M49.1884 31.0963H45.8286V31.3902H49.1884V31.0963Z" fill="#374A5E"/>
<path d="M49.0704 35.0642H46.0054V35.3581H49.0704V35.0642Z" fill="#374A5E"/>
<path d="M26.0826 23.9542H11.4941V41.7656H26.0826V23.9542Z" fill="#95A5B7"/>
<path d="M27.0257 23.2194H10.5806V23.9542H27.0257V23.2194Z" fill="#4B6584"/>
<path d="M23.8428 19.1927H13.3214L10.5806 23.2194H27.0257L23.8428 19.1927Z" fill="#4B6584"/>
<path d="M24.7271 26.335H12.8501V33.5359H24.7271V26.335Z" fill="#98CBFF"/>
<path d="M24.6975 33.918H12.8499C12.6436 33.918 12.4668 33.7417 12.4668 33.5359V26.335C12.4668 26.1292 12.6436 25.9529 12.8499 25.9529H24.727C24.9333 25.9529 25.1101 26.1292 25.1101 26.335V33.5359C25.1101 33.7417 24.9333 33.918 24.6975 33.918ZM13.2331 33.1244H24.3144V26.7171H13.2331V33.1244Z" fill="white"/>
<path d="M21.3084 26.335H20.5127V33.4184H21.3084V26.335Z" fill="white"/>
<path d="M17.3001 26.335H16.5044V33.4184H17.3001V26.335Z" fill="white"/>
<path d="M40.5826 14.255H24.2848C24.0491 14.255 23.8428 14.0493 23.8428 13.8142C23.8428 13.579 24.0491 13.3733 24.2848 13.3733H40.5826C40.8184 13.3733 41.0247 13.579 41.0247 13.8142C41.0247 14.0787 40.8184 14.255 40.5826 14.255Z" fill="#95A5B7"/>
<path d="M25.405 16.1066H15.6794C15.4436 16.1066 15.2373 15.9009 15.2373 15.6657C15.2373 15.4306 15.4436 15.2249 15.6794 15.2249H25.405C25.6408 15.2249 25.8471 15.4306 25.8471 15.6657C25.8471 15.9009 25.6408 16.1066 25.405 16.1066Z" fill="#95A5B7"/>
<path d="M36.309 18.6049H31.2399C31.0042 18.6049 30.7979 18.3992 30.7979 18.164C30.7979 17.9289 31.0042 17.7231 31.2399 17.7231H36.309C36.5448 17.7231 36.7511 17.9289 36.7511 18.164C36.7511 18.3992 36.5448 18.6049 36.309 18.6049Z" fill="#95A5B7"/>
<path d="M29.089 8.96452H25.5524C25.3167 8.96452 25.1104 8.75877 25.1104 8.52364C25.1104 8.28851 25.3167 8.08276 25.5524 8.08276H29.089C29.3248 8.08276 29.5311 8.28851 29.5311 8.52364C29.5311 8.78817 29.3248 8.96452 29.089 8.96452Z" fill="#95A5B7"/>
<path d="M36.7513 11.1689H32.0358C31.8001 11.1689 31.5938 10.9631 31.5938 10.728C31.5938 10.4929 31.8001 10.2871 32.0358 10.2871H36.7513C36.987 10.2871 37.1933 10.4929 37.1933 10.728C37.1933 10.9925 36.987 11.1689 36.7513 11.1689Z" fill="#95A5B7"/>
<path d="M30.0319 22.1319H27.7331C27.4973 22.1319 27.291 21.9261 27.291 21.691C27.291 21.4559 27.4973 21.2501 27.7331 21.2501H30.0319C30.2676 21.2501 30.4739 21.4559 30.4739 21.691C30.4739 21.9261 30.2676 22.1319 30.0319 22.1319Z" fill="#95A5B7"/>
<path d="M33.4212 28.3041H31.5939C31.3582 28.3041 31.1519 28.0984 31.1519 27.8632C31.1519 27.6281 31.3582 27.4224 31.5939 27.4224H33.4212C33.6569 27.4224 33.8632 27.6281 33.8632 27.8632C33.8632 28.0984 33.6569 28.3041 33.4212 28.3041Z" fill="#95A5B7"/>
<path d="M29.2363 26.2467H27.6154C27.3796 26.2467 27.1733 26.041 27.1733 25.8059C27.1733 25.5707 27.3796 25.365 27.6154 25.365H29.2363C29.4721 25.365 29.6784 25.5707 29.6784 25.8059C29.6784 26.041 29.4721 26.2467 29.2363 26.2467Z" fill="#95A5B7"/>
<path d="M36.3091 16.1654H31.8884C31.6526 16.1654 31.4463 15.9597 31.4463 15.7246C31.4463 15.4894 31.6526 15.2837 31.8884 15.2837H36.3091C36.5449 15.2837 36.7512 15.4894 36.7512 15.7246C36.7512 15.9891 36.5449 16.1654 36.3091 16.1654Z" fill="#95A5B7"/>
<path d="M16.2687 37.8565H12.6437C12.408 37.8565 12.2017 37.6507 12.2017 37.4156C12.2017 37.1805 12.408 36.9747 12.6437 36.9747H16.2393C16.475 36.9747 16.6813 37.1805 16.6813 37.4156C16.7108 37.6507 16.5045 37.8565 16.2687 37.8565Z" fill="#D1D8E0"/>
<path d="M23.0469 36.0048H20.0998C19.864 36.0048 19.6577 35.7991 19.6577 35.5639C19.6577 35.3288 19.864 35.123 20.0998 35.123H23.0469C23.2827 35.123 23.489 35.3288 23.489 35.5639C23.489 35.8284 23.2827 36.0048 23.0469 36.0048Z" fill="#D1D8E0"/>
<path d="M23.4888 40.0608H21.9562C21.7205 40.0608 21.5142 39.8551 21.5142 39.62C21.5142 39.3848 21.7205 39.1791 21.9562 39.1791H23.4888C23.7245 39.1791 23.9308 39.3848 23.9308 39.62C23.9308 39.8551 23.7245 40.0608 23.4888 40.0608Z" fill="#D1D8E0"/>
<path d="M14.3528 40.0608H12.5256C12.2898 40.0608 12.0835 39.8551 12.0835 39.62C12.0835 39.3848 12.2898 39.1791 12.5256 39.1791H14.3528C14.5886 39.1791 14.7949 39.3848 14.7949 39.62C14.7949 39.8551 14.5886 40.0608 14.3528 40.0608Z" fill="#D1D8E0"/>
<path d="M16.5633 36.1518H15.3845C15.1487 36.1518 14.9424 35.946 14.9424 35.7109C14.9424 35.4758 15.1487 35.27 15.3845 35.27H16.5633C16.7991 35.27 17.0054 35.4758 17.0054 35.7109C17.0054 35.9754 16.7991 36.1518 16.5633 36.1518Z" fill="#D1D8E0"/>
</svg>
