<svg width="1842" height="443" viewBox="0 0 1842 443" fill="none" xmlns="http://www.w3.org/2000/svg">
<path d="M287.685 355.488C356.887 328.295 398.409 267.975 398.409 185.407C398.409 72.1853 320.309 0 199.204 0C78.5943 0 0 72.1853 0 185.407C0 298.135 78.5943 370.815 199.204 370.815C205.63 370.815 212.056 370.815 217.988 370.32C239.737 416.301 284.225 443 347.99 443C362.325 443 372.705 441.517 385.063 440.034V370.815C374.188 372.792 366.279 373.781 352.933 373.781C334.644 373.781 308.94 371.309 287.685 355.488ZM93.9177 185.407C93.9177 113.717 134.451 68.7243 199.204 68.7243C264.453 68.7243 304.985 113.717 304.985 185.407C304.985 257.098 264.453 302.09 199.204 302.09C134.451 302.09 93.9177 256.604 93.9177 185.407Z" fill="black"/>
<path d="M569.647 368.343C647.747 368.343 703.603 333.239 715.466 276.875L630.94 261.548C624.02 291.213 602.765 307.529 569.152 307.529C528.125 307.529 502.421 280.336 502.421 235.344C502.421 192.329 527.631 166.619 568.658 166.619C601.776 166.619 623.526 182.441 630.446 211.612L715.466 197.768C703.109 139.426 650.712 106.3 571.129 106.3C474.246 106.3 414.929 155.742 414.929 236.827C414.929 316.923 475.729 368.343 569.647 368.343Z" fill="black"/>
<path d="M843.062 360.926V2.4721H757.548V360.926H843.062Z" fill="black"/>
<path d="M1182.19 256.109V236.333C1182.19 154.753 1128.81 106.3 1034.89 106.3C943.445 106.3 885.117 156.731 885.117 239.299C885.117 320.384 943.445 368.343 1038.85 368.343C1102.61 368.343 1151.05 344.611 1176.76 303.574L1112.99 274.403C1098.66 297.641 1072.95 310.496 1041.32 310.496C997.818 310.496 969.643 289.73 966.677 256.109H1182.19ZM1098.16 208.645V210.128H966.182C968.654 175.519 993.369 154.753 1033.9 154.753C1072.95 154.753 1098.16 175.025 1098.16 208.645Z" fill="black"/>
<path d="M1305.36 368.343C1356.77 368.343 1395.33 350.049 1411.14 318.901C1411.14 333.733 1412.13 349.06 1414.6 360.926H1499.13C1495.18 343.622 1493.2 319.89 1493.2 288.741V212.6C1493.2 140.415 1450.69 106.3 1356.28 106.3C1273.73 106.3 1218.37 140.415 1211.94 196.285H1299.93C1302.89 172.058 1323.16 158.709 1356.28 158.709C1388.9 158.709 1407.19 172.058 1407.19 199.746V207.162L1317.72 215.073C1274.22 219.522 1249.51 226.939 1232.21 238.805C1213.92 251.165 1204.53 269.953 1204.53 293.191C1204.53 339.666 1243.08 368.343 1305.36 368.343ZM1337.99 316.923C1309.32 316.923 1292.02 305.551 1292.02 287.258C1292.02 268.47 1306.35 258.582 1342.44 254.132L1408.67 247.21V262.042C1408.67 295.169 1380 316.923 1337.99 316.923Z" fill="black"/>
<path d="M1551.35 113.717V360.926H1636.86V240.288C1636.86 195.296 1660.1 169.586 1700.13 169.586C1738.2 169.586 1756.49 190.846 1756.49 234.849V360.926H1842V222.983C1842 146.348 1805.42 106.3 1736.71 106.3C1688.77 106.3 1654.16 126.571 1634.39 165.136V113.717H1551.35Z" fill="black"/>
</svg>
