<svg width="85" height="83" viewBox="0 0 85 83" fill="none" xmlns="http://www.w3.org/2000/svg">
<path fill-rule="evenodd" clip-rule="evenodd" d="M61.118 45.651C62.2157 49.9982 58.5305 54.06 54.0983 53.3877C52.8663 53.201 51.6067 53.3856 50.4801 53.9177C49.3535 54.4499 48.4109 55.3056 47.7726 56.3757C45.4756 60.2248 39.9976 60.4925 37.3374 56.882C36.5985 55.8792 35.5776 55.1192 34.405 54.699C33.2324 54.2788 31.9611 54.2174 30.7535 54.5227C26.4064 55.6204 22.3435 51.9352 23.0158 47.503C23.2031 46.2711 23.019 45.0114 22.4869 43.8847C21.9549 42.7579 21.0991 41.8154 20.0288 41.1773C16.1787 38.8803 15.911 33.4023 19.5205 30.7432C20.5237 30.0044 21.2842 28.9834 21.7047 27.8106C22.1253 26.6377 22.187 25.3662 21.8818 24.1582C20.7831 19.8111 24.4693 15.7493 28.9015 16.4205C30.1332 16.6075 31.3927 16.4232 32.5192 15.8911C33.6457 15.3591 34.5881 14.5035 35.2261 13.4336C37.5242 9.58339 43.0022 9.31675 45.6603 12.9262C46.3993 13.9295 47.4205 14.6899 48.5935 15.1102C49.7666 15.5306 51.0383 15.592 52.2463 15.2865C56.5935 14.1889 60.6563 17.8741 59.983 22.3063C59.7958 23.5382 59.98 24.798 60.5123 25.9248C61.0445 27.0515 61.9005 27.994 62.971 28.6319C66.8222 30.9279 67.0878 36.4079 63.4783 39.066C62.475 39.8048 61.7146 40.8258 61.2942 41.9987C60.8738 43.1716 60.8124 44.4431 61.118 45.651Z" fill="#36A14B"/>
<mask id="mask0" mask-type="alpha" maskUnits="userSpaceOnUse" x="21" y="46" width="26" height="33">
<path d="M21.2725 46.2289H46.2306V78.9298H21.2735L21.2725 46.2289Z" fill="white"/>
</mask>
<g mask="url(#mask0)">
<path fill-rule="evenodd" clip-rule="evenodd" d="M31.2832 46.2289L21.3595 72.4859C21.0192 73.3865 21.7403 74.2611 22.6045 73.9976L30.2052 71.6808L34.3729 78.4453C34.847 79.2152 35.9675 79.0357 36.3078 78.1362L46.2305 51.8781" fill="#36A14B"/>
</g>
<mask id="mask1" mask-type="alpha" maskUnits="userSpaceOnUse" x="36" y="46" width="26" height="33">
<path d="M36.7676 46.2289H61.7246V78.9298H36.7676V46.2289Z" fill="white"/>
</mask>
<g mask="url(#mask1)">
<path fill-rule="evenodd" clip-rule="evenodd" d="M51.7159 46.2289L61.6385 72.4859C61.9799 73.3865 61.2578 74.2611 60.3935 73.9976L52.7928 71.6808L48.6252 78.4453C48.151 79.2152 47.0305 79.0357 46.6902 78.1362L36.7676 51.8781" fill="#36A14B"/>
</g>
<path fill-rule="evenodd" clip-rule="evenodd" d="M56.0318 34.6526C56.0318 42.6777 49.5246 49.1838 41.4995 49.1838C33.4734 49.1838 26.9673 42.6777 26.9673 34.6516C26.9673 26.6265 33.4734 20.1204 41.4995 20.1204C49.5246 20.1204 56.0318 26.6265 56.0318 34.6516" fill="white"/>
<path d="M72.6632 39.4023L81.0774 41.4711M52.2307 53.3857C51.3126 53.523 50.4364 53.8624 49.6655 54.3795C48.8945 54.8966 48.248 55.5784 47.7726 56.3758C45.4766 60.226 39.9986 60.4926 37.3384 56.8821C36.5993 55.8789 35.5781 55.1186 34.4051 54.6983C33.2321 54.2779 31.9605 54.2164 30.7524 54.5218L52.2307 53.3857ZM36.7678 33.4201L41.4916 40.8195L48.0465 27.2189L36.7678 33.4201ZM15.8892 26.9813L1.00104 23.2837L15.8892 26.9813ZM13.0765 32.7747H1H13.0765ZM12.122 39.4023L3.70787 41.4711L12.122 39.4023ZM68.895 26.9813L83.7842 23.2837L68.895 26.9813ZM71.7087 32.7747H83.7842H71.7087Z" stroke="black" stroke-linecap="round" stroke-linejoin="round"/>
</svg>
