<svg width="76" height="76" viewBox="0 0 76 76" fill="none" xmlns="http://www.w3.org/2000/svg">
<path fill-rule="evenodd" clip-rule="evenodd" d="M23.4267 20.3519C13.085 20.3519 5.57715 27.3838 5.57715 37.071C5.57715 44.9512 10.5513 51.226 18.272 53.164V61.7795H28.437V53.1972C36.2507 51.3029 41.2791 45.0263 41.2791 37.071C41.2791 27.3838 33.7712 20.3519 23.4276 20.3519" fill="#FAA477"/>
<path fill-rule="evenodd" clip-rule="evenodd" d="M18.8804 31.9789C18.8853 32.1723 18.8515 32.3648 18.7809 32.5449C18.7103 32.7251 18.6043 32.8893 18.4693 33.0279C18.3342 33.1664 18.1728 33.2766 17.9945 33.3518C17.8162 33.4269 17.6246 33.4657 17.4311 33.4657C17.2376 33.4657 17.0461 33.4269 16.8678 33.3518C16.6895 33.2766 16.5281 33.1664 16.393 33.0279C16.258 32.8893 16.152 32.7251 16.0814 32.5449C16.0108 32.3648 15.977 32.1723 15.9819 31.9789C15.9916 31.6009 16.1485 31.2417 16.4193 30.9779C16.69 30.714 17.0531 30.5663 17.4311 30.5663C17.8092 30.5663 18.1723 30.714 18.443 30.9779C18.7138 31.2417 18.8707 31.6009 18.8804 31.9789Z" fill="black"/>
<path d="M18.8521 62.6715H27.8267" stroke="black" stroke-width="2.109" stroke-linecap="round" stroke-linejoin="round"/>
<path d="M22.4694 42.6475C20.8136 40.5946 16.7314 40.4654 16.7314 38.345C16.7314 36.2255 21.0539 35.8845 22.4694 33.4287" stroke="black" stroke-linecap="round" stroke-linejoin="round"/>
<path fill-rule="evenodd" clip-rule="evenodd" d="M29.4047 31.979C29.4046 32.3636 29.2517 32.7324 28.9797 33.0043C28.7076 33.2761 28.3387 33.4288 27.9541 33.4287C27.5695 33.4285 27.2007 33.2756 26.9288 33.0036C26.6569 32.7315 26.5043 32.3626 26.5044 31.978C26.5045 31.5934 26.6574 31.2246 26.9295 30.9527C27.0642 30.8181 27.2241 30.7113 27.4 30.6385C27.576 30.5657 27.7646 30.5283 27.955 30.5283C28.1455 30.5284 28.334 30.566 28.51 30.6389C28.6859 30.7118 28.8457 30.8187 28.9803 30.9534C29.115 31.0881 29.2217 31.248 29.2945 31.424C29.3674 31.5999 29.4048 31.7885 29.4047 31.979Z" fill="black"/>
<path d="M18.5439 44.7345C20.6529 47.4895 25.8266 47.2624 27.4834 44.7345" stroke="black" stroke-linecap="round" stroke-linejoin="round"/>
<mask id="mask0" mask-type="alpha" maskUnits="userSpaceOnUse" x="0" y="0" width="47" height="61">
<path d="M0 0.927124H46.9081V60.7676H0V0.927124Z" fill="white"/>
</mask>
<g mask="url(#mask0)">
<path fill-rule="evenodd" clip-rule="evenodd" d="M46.8064 49.5025C46.4796 47.061 45.236 45.0328 44.0343 43.071C43.1631 41.6479 42.3414 40.3046 41.8531 38.8312C41.5871 38.0275 41.4199 37.4537 41.3106 36.8381C41.208 28.3973 35.3855 22.0238 26.9713 20.6349C30.8008 19.1662 33.532 15.4612 33.532 11.1206C33.532 5.49947 28.9597 0.927124 23.3385 0.927124C17.7183 0.927124 13.146 5.49947 13.146 11.1206C13.146 15.4887 15.9114 19.2127 19.7798 20.6615C14.8959 21.5165 10.9068 24.0634 8.42069 27.7181L8.40074 27.7485C6.70024 30.2641 5.69704 33.2936 5.62484 36.6661C5.51654 37.3492 5.34459 37.9543 5.05484 38.8312C4.56749 40.3046 3.74479 41.6479 2.87364 43.0691C1.67189 45.0328 0.429292 47.061 0.101542 49.5025C-0.454207 53.6787 1.28809 57.3799 4.65109 59.1621C6.53779 60.1615 8.86624 60.7676 11.1852 60.7676C13.7625 60.7676 16.3256 60.019 18.2551 58.2273C18.275 58.2102 18.2902 58.1865 18.3102 58.1684V51.1327C11.7609 49.2821 7.56949 43.8472 7.56949 37.0623C7.56949 34.1439 8.36274 31.5076 9.75449 29.2884C10.2114 29.3359 10.8688 29.3844 11.6659 29.3844C14.9044 29.3844 20.3622 28.5693 23.3452 23.6464C26.3348 28.5484 31.8287 29.3701 35.1109 29.3701C35.984 29.3701 36.6908 29.3141 37.1601 29.2628C38.5613 31.4867 39.3622 34.1315 39.3622 37.0623C39.3622 43.9241 35.109 49.3705 28.459 51.1764L28.4761 53.6303V58.0335C28.5369 58.0953 28.5892 58.1665 28.6528 58.2264C30.5823 60.019 33.1454 60.7676 35.7208 60.7676C38.0388 60.7676 40.3701 60.1606 42.2587 59.1612C45.6217 57.379 47.3631 53.6778 46.8054 49.5016" fill="black"/>
</g>
<path fill-rule="evenodd" clip-rule="evenodd" d="M9.91598 49.1397C9.92303 49.5341 9.85144 49.9259 9.70539 50.2923C9.55934 50.6588 9.34176 50.9924 9.06534 51.2738C8.78892 51.5552 8.45921 51.7787 8.09546 51.9313C7.73171 52.0839 7.34121 52.1625 6.94675 52.1625C6.55229 52.1625 6.16179 52.0839 5.79804 51.9313C5.43429 51.7787 5.10458 51.5552 4.82816 51.2738C4.55174 50.9924 4.33416 50.6588 4.18811 50.2923C4.04206 49.9259 3.97047 49.5341 3.97753 49.1397C3.99145 48.3614 4.3104 47.6197 4.86572 47.0742C5.42104 46.5287 6.16834 46.2231 6.94675 46.2231C7.72517 46.2231 8.47246 46.5287 9.02778 47.0742C9.58311 47.6197 9.90205 48.3614 9.91598 49.1397ZM42.8781 49.1397C42.8782 49.5295 42.8016 49.9156 42.6525 50.2758C42.5034 50.6361 42.2849 50.9634 42.0093 51.2392C41.7337 51.5149 41.4065 51.7337 41.0463 51.883C40.6862 52.0323 40.3002 52.1092 39.9103 52.1094C39.5205 52.1095 39.1344 52.0328 38.7742 51.8838C38.4139 51.7347 38.0866 51.5161 37.8108 51.2405C37.5351 50.9649 37.3163 50.6377 37.167 50.2776C37.0177 49.9175 36.9407 49.5314 36.9406 49.1416C36.9404 48.3542 37.2529 47.599 37.8095 47.0421C38.3661 46.4851 39.1211 46.1721 39.9084 46.1719C40.6958 46.1716 41.451 46.4842 42.0079 47.0407C42.5649 47.5973 42.8779 48.3523 42.8781 49.1397Z" fill="white"/>
<mask id="mask1" mask-type="alpha" maskUnits="userSpaceOnUse" x="7" y="60" width="33" height="16">
<path d="M7.09131 60.7666H39.9091V75.9989H7.09131V60.7666Z" fill="white"/>
</mask>
<g mask="url(#mask1)">
<path fill-rule="evenodd" clip-rule="evenodd" d="M38.4423 75.9999C39.7713 75.9999 40.4145 74.3678 39.4407 73.4634C38.3599 72.4606 37.305 71.4301 36.2772 70.373C33.754 67.561 31.4864 64.5733 29.5237 61.3062C29.5018 61.2682 29.4629 61.2464 29.4363 61.2112C29.3915 61.1498 29.3402 61.0934 29.2833 61.0431C29.2301 60.9989 29.1728 60.9598 29.1123 60.9262C29.0511 60.8907 28.9865 60.8614 28.9195 60.8388C28.8472 60.8159 28.7727 60.8006 28.6972 60.7932C28.6535 60.7875 28.6145 60.7666 28.5699 60.7666H18.3517C18.3251 60.7666 18.3023 60.7809 18.2757 60.7828C18.1405 60.7772 18.0053 60.7958 17.8767 60.8379C17.5917 61.1134 17.3114 61.3917 17.0264 61.6682C14.3693 66.0163 11.1953 69.8895 7.53783 73.4833C6.59923 74.4058 7.23668 75.9999 8.55433 75.9999H38.4413H38.4423Z" fill="black"/>
</g>
<path fill-rule="evenodd" clip-rule="evenodd" d="M53.5135 9.655C52.5154 9.65449 51.5582 9.25762 50.8526 8.55163C50.147 7.84564 49.7506 6.88832 49.7506 5.89015V3.47525C49.7374 3.23835 49.6341 3.01548 49.4617 2.85243C49.2894 2.68937 49.0611 2.59851 48.8239 2.59851C48.5866 2.59851 48.3583 2.68937 48.186 2.85243C48.0136 3.01548 47.9103 3.23835 47.8971 3.47525V5.89015C47.8969 6.88874 47.5 7.84634 46.7938 8.55236C46.0876 9.25838 45.1299 9.655 44.1313 9.655C44.0097 9.655 43.8892 9.67896 43.7769 9.72551C43.6645 9.77205 43.5624 9.84028 43.4764 9.92629C43.3904 10.0123 43.3221 10.1144 43.2756 10.2268C43.229 10.3392 43.2051 10.4596 43.2051 10.5812C43.2051 10.7029 43.229 10.8233 43.2756 10.9357C43.3221 11.0481 43.3904 11.1502 43.4764 11.2362C43.5624 11.3222 43.6645 11.3904 43.7769 11.437C43.8892 11.4835 44.0097 11.5075 44.1313 11.5075C45.1301 11.5075 46.0879 11.9043 46.7942 12.6105C47.5004 13.3167 47.8971 14.2745 47.8971 15.2733V17.6872C47.8971 17.933 47.9948 18.1687 48.1686 18.3425C48.3424 18.5163 48.5781 18.614 48.8239 18.614C49.0696 18.614 49.3054 18.5163 49.4791 18.3425C49.6529 18.1687 49.7506 17.933 49.7506 17.6872V15.2733C49.7506 14.2748 50.1472 13.3172 50.8533 12.6111C51.5593 11.9051 52.5169 11.5084 53.5154 11.5084C53.7561 11.5007 53.9843 11.3997 54.1518 11.2268C54.3193 11.0538 54.413 10.8225 54.413 10.5817C54.413 10.341 54.3193 10.1096 54.1518 9.93667C53.9843 9.76372 53.7561 9.6627 53.5154 9.655" fill="#FFEA2D"/>
<mask id="mask2" mask-type="alpha" maskUnits="userSpaceOnUse" x="53" y="14" width="10" height="15">
<path d="M53.1743 14.8295H62.7921V28.5779H53.1743V14.8295Z" fill="white"/>
</mask>
<g mask="url(#mask2)">
<path fill-rule="evenodd" clip-rule="evenodd" d="M61.999 20.9114C61.1443 20.9112 60.3247 20.5715 59.7204 19.967C59.1161 19.3625 58.7766 18.5428 58.7766 17.6881V15.6237C58.7766 15.4136 58.6931 15.2121 58.5446 15.0635C58.396 14.9149 58.1945 14.8314 57.9843 14.8314C57.7742 14.8314 57.5727 14.9149 57.4241 15.0635C57.2755 15.2121 57.192 15.4136 57.192 15.6237V17.6881C57.192 18.5428 56.8526 19.3625 56.2483 19.967C55.644 20.5715 54.8243 20.9112 53.9696 20.9114C53.8632 20.9077 53.7571 20.9255 53.6577 20.9637C53.5583 21.0019 53.4676 21.0597 53.3911 21.1337C53.3145 21.2076 53.2536 21.2963 53.212 21.3943C53.1704 21.4923 53.1489 21.5977 53.1489 21.7042C53.1489 21.8107 53.1704 21.9161 53.212 22.0141C53.2536 22.1121 53.3145 22.2008 53.3911 22.2747C53.4676 22.3487 53.5583 22.4065 53.6577 22.4447C53.7571 22.4829 53.8632 22.5007 53.9696 22.497C54.8241 22.497 55.6436 22.8363 56.2479 23.4405C56.8522 24.0446 57.1918 24.864 57.192 25.7184V27.7856C57.192 27.9958 57.2755 28.1973 57.4241 28.3459C57.5727 28.4944 57.7742 28.5779 57.9843 28.5779C58.1945 28.5779 58.396 28.4944 58.5446 28.3459C58.6931 28.1973 58.7766 27.9958 58.7766 27.7856V25.7184C58.7769 24.864 59.1165 24.0446 59.7208 23.4405C60.3251 22.8363 61.1446 22.497 61.999 22.497C62.2094 22.497 62.4112 22.4134 62.5599 22.2646C62.7087 22.1159 62.7923 21.9141 62.7923 21.7037C62.7923 21.4933 62.7087 21.2916 62.5599 21.1428C62.4112 20.994 62.2094 20.9105 61.999 20.9105" fill="#FFEA2D"/>
</g>
</svg>
